<svg width="32" height="32" viewBox="0 0 32 32" fill="none" xmlns="http://www.w3.org/2000/svg">
<path d="M16 8.75C16.7417 8.75 17.4667 8.53007 18.0834 8.11801C18.7 7.70596 19.1807 7.12029 19.4645 6.43506C19.7483 5.74984 19.8226 4.99584 19.6779 4.26841C19.5332 3.54098 19.1761 2.8728 18.6516 2.34835C18.1272 1.8239 17.459 1.46675 16.7316 1.32206C16.0041 1.17736 15.2501 1.25162 14.5649 1.53545C13.8797 1.81928 13.294 2.29993 12.882 2.91661C12.4699 3.5333 12.25 4.25832 12.25 5C12.25 5.99456 12.6451 6.94839 13.3483 7.65165C14.0516 8.35491 15.0054 8.75 16 8.75ZM16 2.75C16.445 2.75 16.88 2.88196 17.25 3.12919C17.62 3.37643 17.9084 3.72783 18.0787 4.13896C18.249 4.5501 18.2936 5.0025 18.2067 5.43895C18.1199 5.87541 17.9056 6.27632 17.591 6.59099C17.2763 6.90566 16.8754 7.11995 16.4389 7.20677C16.0025 7.29359 15.5501 7.24903 15.1389 7.07873C14.7278 6.90843 14.3764 6.62004 14.1292 6.25003C13.8819 5.88002 13.75 5.44501 13.75 5C13.75 4.40326 13.987 3.83097 14.409 3.40901C14.8309 2.98705 15.4032 2.75 16 2.75ZM27.11 16.9275L21.4587 10.52C21.1068 10.1209 20.6741 9.80126 20.1892 9.58229C19.7042 9.36332 19.1783 9.25005 18.6462 9.25H13.3537C12.8218 9.24989 12.2958 9.36297 11.8109 9.58172C11.326 9.80047 10.8932 10.1199 10.5412 10.5188L4.88997 16.9275C4.68002 17.1355 4.51309 17.3828 4.39871 17.6553C4.28433 17.9278 4.22475 18.2201 4.22335 18.5156C4.22054 19.1125 4.45493 19.686 4.87497 20.11C5.29501 20.534 5.86628 20.7738 6.46311 20.7766C7.05995 20.7794 7.63346 20.545 8.05747 20.125L10.6962 18.0088L8.42997 26.615C8.19173 27.1564 8.17626 27.7698 8.38691 28.3226C8.59757 28.8753 9.01741 29.3228 9.55556 29.5683C10.0937 29.8138 10.7069 29.8375 11.2624 29.6343C11.8179 29.4311 12.271 29.0173 12.5237 28.4825L16 22.5L19.4762 28.4888C19.7289 29.0236 20.1821 29.4373 20.7376 29.6406C21.2931 29.8438 21.9062 29.8201 22.4444 29.5746C22.9825 29.3291 23.4024 28.8815 23.613 28.3288C23.8237 27.7761 23.8082 27.1627 23.57 26.6213L21.3037 18.0125L23.9425 20.125C24.369 20.5305 24.9375 20.7527 25.526 20.744C26.1145 20.7353 26.6762 20.4963 27.0905 20.0784C27.5049 19.6604 27.739 19.0967 27.7426 18.5081C27.7463 17.9196 27.5192 17.3531 27.11 16.93V16.9275ZM26.0312 19.03C25.9616 19.0997 25.8788 19.1551 25.7878 19.1928C25.6968 19.2305 25.5992 19.25 25.5006 19.25C25.402 19.25 25.3044 19.2305 25.2134 19.1928C25.1223 19.1551 25.0396 19.0997 24.97 19.03C24.951 19.0101 24.9306 18.9917 24.9087 18.975L20.47 15.415C20.3469 15.3162 20.1959 15.2588 20.0384 15.2508C19.8808 15.2429 19.7247 15.2848 19.5924 15.3706C19.46 15.4565 19.3581 15.5818 19.3011 15.729C19.2441 15.8761 19.235 16.0374 19.275 16.19L22.1337 27.0563C22.1462 27.0989 22.1617 27.1407 22.18 27.1813C22.264 27.3616 22.273 27.5679 22.2049 27.7549C22.1368 27.9418 21.9972 28.0941 21.8168 28.1781C21.6365 28.2622 21.4302 28.2711 21.2432 28.203C21.0563 28.1349 20.904 27.9953 20.82 27.815C20.8108 27.7944 20.8004 27.7743 20.7887 27.755L16.6487 20.625C16.5828 20.5113 16.4882 20.417 16.3743 20.3514C16.2604 20.2858 16.1314 20.2513 16 20.2513C15.8686 20.2513 15.7395 20.2858 15.6256 20.3514C15.5118 20.417 15.4171 20.5113 15.3512 20.625L11.2112 27.7563C11.1996 27.7756 11.1891 27.7956 11.18 27.8163C11.0959 27.9966 10.9437 28.1362 10.7567 28.2043C10.5698 28.2724 10.3634 28.2634 10.1831 28.1794C10.0027 28.0953 9.86317 27.9431 9.79507 27.7561C9.72697 27.5692 9.73593 27.3629 9.81997 27.1825C9.83827 27.142 9.85373 27.1002 9.86622 27.0575L12.725 16.1913C12.7644 16.0392 12.755 15.8786 12.6983 15.7322C12.6415 15.5858 12.5403 15.4608 12.4087 15.375C12.2873 15.295 12.1454 15.2516 12 15.25C11.8291 15.2499 11.6633 15.3081 11.53 15.415L7.09122 18.975C7.06938 18.9917 7.0489 19.0101 7.02997 19.03C6.88924 19.1707 6.69837 19.2498 6.49935 19.2498C6.30032 19.2498 6.10945 19.1707 5.96872 19.03C5.82799 18.8893 5.74893 18.6984 5.74893 18.4994C5.74893 18.3004 5.82799 18.1095 5.96872 17.9688L6.00122 17.935L11.6662 11.5113C11.8774 11.2719 12.1371 11.0803 12.4281 10.949C12.719 10.8178 13.0345 10.7499 13.3537 10.75H18.6462C18.9654 10.7499 19.2809 10.8178 19.5719 10.949C19.8628 11.0803 20.1225 11.2719 20.3337 11.5113L26 17.935L26.0325 17.9688C26.1021 18.0385 26.1573 18.1213 26.195 18.2124C26.2326 18.3035 26.2519 18.4011 26.2518 18.4996C26.2517 18.5982 26.2322 18.6958 26.1943 18.7868C26.1565 18.8778 26.101 18.9604 26.0312 19.03Z" fill="#F21E84"/>
</svg>
