<svg width="64" height="64" viewBox="0 0 64 64" fill="none" xmlns="http://www.w3.org/2000/svg">
<path d="M32.0006 2.62685C31.4573 2.62685 30.906 2.63097 30.3665 2.6636C29.1581 2.7301 27.9699 2.8961 26.8046 3.10422C26.6756 3.12722 26.5476 3.15297 26.4191 3.17772C26.3089 3.19897 26.1984 3.21022 26.0886 3.23272C26.0274 3.24335 25.9661 3.25647 25.9051 3.26947C25.8441 3.28247 25.7826 3.29285 25.7214 3.30622C25.0795 3.4461 24.4374 3.60247 23.812 3.7836C23.7507 3.80085 23.6894 3.82047 23.6283 3.8386C23.5969 3.84797 23.568 3.86547 23.5366 3.87535C23.446 3.90247 23.3514 3.92072 23.2611 3.94872C23.0889 4.0071 22.9196 4.07497 22.747 4.13235C22.3836 4.25297 22.0208 4.36522 21.6637 4.4996C21.6196 4.51272 21.5791 4.53922 21.5352 4.5546C20.9951 4.76072 20.4622 4.99735 19.938 5.23397C19.4047 5.47447 18.8746 5.71585 18.359 5.98672C17.8426 6.25917 17.3344 6.54692 16.8351 6.8496C16.8116 6.86372 16.7855 6.87222 16.7612 6.88635C16.2877 7.17293 15.8224 7.47292 15.3659 7.78597C14.6084 8.30722 13.8846 8.86872 13.1809 9.45672C12.9137 9.67847 12.6506 9.90496 12.3915 10.1361C12.3438 10.1792 12.2925 10.2211 12.2446 10.2646C11.9679 10.5162 11.7036 10.7737 11.4368 11.0358C11.3999 11.072 11.3637 11.1095 11.3266 11.1458C10.9619 11.5073 10.607 11.8675 10.2616 12.2475C10.0531 12.4765 9.856 12.7097 9.65575 12.9452C9.45588 13.1793 9.26075 13.4208 9.06825 13.6612C8.67931 14.145 8.30579 14.641 7.94825 15.1485C7.71912 15.4748 7.50325 15.8038 7.28737 16.1398C7.26575 16.1726 7.23513 16.1986 7.2135 16.2317C7.17017 16.2987 7.12729 16.366 7.08488 16.4336C7.06862 16.4593 7.04612 16.4811 7.02987 16.5071C6.97775 16.5908 6.93337 16.6793 6.88312 16.7641C6.68883 17.092 6.49907 17.4225 6.31388 17.7556C6.26888 17.837 6.21162 17.9123 6.167 17.9943V18.0125C5.94375 18.4241 5.72825 18.8379 5.5245 19.261C5.32237 19.681 5.13775 20.099 4.95538 20.5279C4.904 20.6484 4.858 20.7737 4.80837 20.8951C4.69762 21.1638 4.58113 21.4303 4.47788 21.703C4.42088 21.8551 4.36725 22.0086 4.31262 22.162C4.26898 22.2841 4.22615 22.4064 4.18412 22.5291H4.16587C4.11075 22.6915 4.07138 22.8614 4.019 23.0249C4.00375 23.0729 3.99737 23.1236 3.98275 23.1717C3.97275 23.2034 3.95562 23.2318 3.94625 23.2636C3.88287 23.4768 3.82438 23.6913 3.76262 23.9061V23.9245C3.75325 23.95 3.73325 23.972 3.72625 23.998C3.70387 24.0761 3.69275 24.158 3.671 24.2367C3.60287 24.4861 3.53088 24.7373 3.46913 24.9893C3.45088 25.0631 3.43163 25.1361 3.41388 25.2097C3.391 25.3065 3.38037 25.4065 3.35862 25.5035C3.27105 25.8935 3.19149 26.2852 3.12 26.6785C3.1095 26.7344 3.093 26.788 3.083 26.8439C3.07662 26.8685 3.06887 26.8926 3.06475 26.9172C3.00837 27.2415 2.96375 27.5625 2.91788 27.8904C2.91788 27.9091 2.902 27.9262 2.89975 27.9456C2.88262 28.0696 2.86038 28.1881 2.8445 28.3127H2.86262C2.81095 28.7279 2.76811 29.1442 2.73412 29.5612C2.72787 29.6041 2.7195 29.6467 2.716 29.6897H2.69775C2.67775 29.9445 2.6725 30.2041 2.6615 30.461C2.6615 30.4734 2.662 30.4856 2.6615 30.4974C2.66112 30.5036 2.66162 30.5097 2.6615 30.5156C2.63675 31.0102 2.625 31.5019 2.625 32.0027V32.021C2.62525 32.5217 2.63675 33.0135 2.66138 33.5081C2.66163 33.5144 2.66113 33.5205 2.66138 33.5264C2.679 33.8948 2.70375 34.2632 2.73475 34.6278C2.74475 34.7441 2.76063 34.86 2.77125 34.9766V35.0501C2.78175 35.1607 2.79525 35.2713 2.8075 35.3807C2.83287 35.6032 2.86862 35.8216 2.89937 36.0416C2.92475 36.2256 2.94413 36.4096 2.97288 36.5924C2.97913 36.6288 2.98525 36.666 2.991 36.7026C3.05975 37.131 3.12437 37.5475 3.21137 37.9695C3.30575 38.4245 3.40825 38.8812 3.5235 39.3282C3.52975 39.3354 3.53813 39.3393 3.54163 39.3463V39.3646C3.6495 39.7797 3.76537 40.1866 3.89037 40.5947C3.90575 40.6447 3.92988 40.6916 3.94575 40.7416C4.06275 41.1116 4.1835 41.4788 4.31287 41.8432C4.32875 41.8873 4.35225 41.9278 4.36812 41.9717C4.4075 42.0808 4.43763 42.1936 4.47813 42.3022C4.54986 42.4926 4.62332 42.6824 4.6985 42.8715C4.77425 43.0615 4.85788 43.2526 4.93725 43.4405C5.12237 43.8798 5.31826 44.3144 5.52475 44.7441C5.70238 45.1141 5.88287 45.4854 6.07562 45.8456C6.10538 45.9015 6.13688 45.9556 6.16738 46.011V46.0291C6.33463 46.3371 6.504 46.6275 6.6815 46.9287C6.74538 47.0362 6.81862 47.1355 6.8835 47.2408C7.04187 47.498 7.19488 47.7571 7.36088 48.0121C7.39687 48.0672 7.43462 48.1221 7.47087 48.1772C7.61962 48.4022 7.77537 48.6176 7.93 48.8382C7.9975 48.9355 8.063 49.0355 8.132 49.132C8.2395 49.2817 8.352 49.425 8.46237 49.5726C8.62237 49.7873 8.77425 50.006 8.93987 50.2152C8.95862 50.2387 8.97675 50.2646 8.99475 50.2887C9.08388 50.401 9.17938 50.5082 9.27013 50.6191C9.31613 50.6761 9.37012 50.7278 9.417 50.7843C9.54762 50.9416 9.66825 51.1072 9.80262 51.2618C9.95087 51.4326 10.1108 51.591 10.2615 51.7575C10.4039 51.9146 10.5369 52.0802 10.6839 52.2348C10.6982 52.2507 10.7235 52.2561 10.7389 52.2718C10.901 52.4418 11.0685 52.6013 11.2346 52.7675C11.3465 52.8819 11.4496 53.0048 11.5651 53.1162C11.6389 53.1887 11.7101 53.2653 11.7855 53.3366C11.9332 53.4767 12.0913 53.606 12.2443 53.7406C12.3746 53.8551 12.4998 53.9752 12.63 54.0893C12.6389 54.0948 12.6416 54.1018 12.648 54.1076C12.7566 54.2027 12.8685 54.2893 12.9785 54.383C13.1431 54.523 13.3064 54.6687 13.4742 54.8052C13.7426 55.0243 14.0244 55.238 14.3004 55.4478C14.3561 55.4903 14.4097 55.5347 14.4655 55.5765C14.5006 55.6023 14.5404 55.624 14.5759 55.6498C14.9051 55.893 15.2275 56.1363 15.5671 56.3658C15.911 56.6 16.2599 56.8265 16.6138 57.0452C16.6328 57.057 16.6498 57.0705 16.6688 57.0816L16.7605 57.1368C16.9916 57.2773 17.223 57.4066 17.4583 57.5408C17.6341 57.6411 17.813 57.7368 17.9907 57.8346C18.1011 57.8953 18.2095 57.9595 18.3213 58.0182C18.6126 58.172 18.905 58.3147 19.2025 58.4588C19.2195 58.467 19.2402 58.4688 19.2575 58.4771C19.4524 58.57 19.6481 58.663 19.845 58.7525C19.9869 58.8171 20.1244 58.892 20.2671 58.9545C20.363 58.9962 20.4634 59.0268 20.5609 59.0645C20.6484 59.0981 20.7318 59.1391 20.818 59.1748C21.1095 59.2948 21.403 59.4126 21.6994 59.5236C21.766 59.5488 21.8343 59.5723 21.9013 59.5971C21.9193 59.6033 21.9382 59.6087 21.9562 59.6152C21.9688 59.6215 21.9805 59.6287 21.9931 59.6335C22.2966 59.7435 22.6031 59.8455 22.9111 59.9455C22.9959 59.973 23.0833 59.992 23.1682 60.019L23.407 60.0924C23.5604 60.1399 23.711 60.1948 23.8659 60.2392C24.1278 60.3146 24.3906 60.3915 24.6554 60.4596C25.0437 60.5598 25.4361 60.6506 25.8304 60.735C25.8854 60.7467 25.9404 60.7602 25.9956 60.7715C26.0631 60.7856 26.1304 60.795 26.1976 60.8077C26.6372 60.8961 27.0732 60.9782 27.5196 61.0465C27.92 61.1078 28.3259 61.1485 28.7314 61.1933C28.7746 61.1996 28.8169 61.2075 28.8598 61.2116C28.9694 61.2232 29.0805 61.2379 29.1904 61.2478C29.2641 61.2552 29.3376 61.2603 29.4107 61.2661C29.6914 61.2908 29.9722 61.3049 30.2551 61.3214C30.3345 61.3267 30.4145 61.3355 30.4939 61.3396C30.6405 61.3469 30.7875 61.3525 30.9346 61.3577C31.29 61.3707 31.6409 61.376 31.9995 61.376C32.5065 61.376 33.0043 61.3647 33.505 61.339C33.9999 61.3142 34.4856 61.278 34.9738 61.2288H35.01C35.3515 61.1936 35.7 61.1469 36.038 61.1003C36.2772 61.0667 36.516 61.0299 36.7542 60.9901C36.8406 60.9761 36.9252 60.9685 37.0111 60.9538C37.1225 60.9343 37.2306 60.9191 37.3416 60.8985C37.7016 60.8322 38.0695 60.7577 38.4249 60.6782C38.4986 60.6617 38.572 60.64 38.6452 60.623C38.8494 60.576 39.0498 60.525 39.2511 60.4761C39.2944 60.4656 39.3368 60.4502 39.3796 60.4397C39.44 60.4244 39.5031 60.4191 39.5633 60.4033C39.6798 60.3721 39.7961 60.344 39.912 60.3115C40.0164 60.2827 40.1201 60.25 40.2241 60.2197C40.3975 60.1691 40.5662 60.1073 40.7383 60.0545C40.8659 60.0151 40.997 59.9857 41.1237 59.9442C41.1364 59.9388 41.1471 59.9302 41.1608 59.9261C41.4736 59.8233 41.7886 59.7086 42.097 59.5956L42.3908 59.4853C42.502 59.4431 42.6109 59.4002 42.7212 59.3568C43.111 59.2041 43.4966 59.03 43.878 58.8611C43.9384 58.8349 44.0016 58.8148 44.0616 58.7877L44.2269 58.7143C44.7169 58.4891 45.2005 58.2504 45.6772 57.9983C46.7422 57.4371 47.7609 56.8087 48.7435 56.1255C49.0221 55.9317 49.298 55.741 49.5698 55.538L49.79 55.3727C49.8413 55.3333 49.8854 55.284 49.9369 55.2442C50.2262 55.0205 50.5191 54.799 50.7998 54.5648C51.4283 54.0395 52.0347 53.4882 52.6175 52.9125C52.649 52.882 52.6788 52.8515 52.7093 52.8206C52.7273 52.8025 52.7463 52.7843 52.7643 52.7655C53.0646 52.4659 53.3584 52.1598 53.6455 51.8475C53.6753 51.8157 53.7085 51.7877 53.7373 51.7556C54.3113 51.1242 54.8535 50.4525 55.3713 49.7727C55.6427 49.4177 55.9059 49.0565 56.1608 48.6895C56.4536 48.2663 56.7347 47.843 57.0054 47.4042C57.0405 47.3484 57.081 47.2948 57.1155 47.239C57.2149 47.0755 57.313 46.9089 57.4092 46.7432C57.5424 46.5236 57.672 46.3075 57.7949 46.0823C57.8056 46.063 57.8211 46.0465 57.8319 46.0271V46.0089C58.0644 45.5807 58.2811 45.1461 58.4927 44.7053C58.6877 44.298 58.885 43.8741 59.0619 43.4568V43.4386C59.0853 43.3834 59.1124 43.3286 59.1357 43.2733C59.2979 42.8853 59.451 42.4935 59.5949 42.0983C59.6435 41.9653 59.6769 41.8284 59.7233 41.6945C59.8126 41.4386 59.8984 41.1815 59.9804 40.9232C60.1079 40.5226 60.2369 40.1195 60.3475 39.7116C60.4572 39.3072 60.5488 38.8923 60.6413 38.4813C60.7496 38.0006 60.8505 37.5203 60.935 37.0308V37.0127C61.0035 36.6155 61.0664 36.2218 61.1188 35.8193C61.1313 35.7213 61.1439 35.6237 61.1548 35.5256C61.2079 35.0778 61.2501 34.6206 61.2831 34.1668C61.3336 33.4747 61.3732 32.7785 61.375 32.0739V32.0005C61.375 30.1413 61.1911 28.329 60.8609 26.5658C60.8312 26.4072 60.8015 26.246 60.7691 26.0884C60.7366 25.9286 60.6944 25.7699 60.6589 25.6111C60.2514 23.7761 59.6845 21.993 58.9514 20.305C58.8892 20.1616 58.8151 20.0242 58.7495 19.8827C58.6561 19.6815 58.5697 19.4767 58.474 19.2768C58.456 19.2397 58.4362 19.204 58.419 19.1666V19.1482C58.2318 18.762 58.0345 18.3868 57.8315 18.01V17.9916C57.6354 17.6306 57.4179 17.2783 57.2072 16.9266C57.1775 16.8776 57.1451 16.8287 57.1155 16.7798C57.1065 16.7761 57.1245 16.7642 57.1155 16.7615C56.926 16.4496 56.7286 16.1477 56.528 15.8435C56.0244 15.0781 55.4852 14.3368 54.9123 13.622C54.3695 12.9461 53.786 12.3006 53.1865 11.6757C53.1685 11.6571 53.1495 11.6392 53.1315 11.6207L53.0946 11.584C52.795 11.2743 52.4895 10.9805 52.1766 10.6842C51.2622 9.81872 50.2952 9.0041 49.2756 8.26072C48.6179 7.7811 47.9536 7.32685 47.2561 6.90197C47.2471 6.89797 47.2453 6.88797 47.2381 6.88372C46.6896 6.55047 46.1203 6.24497 45.549 5.94747C45.1196 5.72372 44.6869 5.50747 44.2455 5.30472C43.8062 5.1031 43.3555 4.91597 42.9051 4.7356C42.8926 4.73022 42.8809 4.72222 42.8683 4.71722C41.5139 4.17722 40.1086 3.73085 38.6637 3.39535C38.615 3.38397 38.5661 3.36997 38.5169 3.3586C38.3409 3.3186 38.1616 3.28522 37.9844 3.24847C37.7281 3.19557 37.471 3.14661 37.2132 3.1016C36.508 2.9751 35.8051 2.8646 35.0835 2.78947C34.6069 2.73972 34.116 2.68747 33.633 2.66085C33.597 2.6591 33.5591 2.66272 33.523 2.66085H33.5049C33.0034 2.63589 32.5014 2.62367 31.9994 2.62422L32.0006 2.62685ZM30.0544 5.34422C30.8475 5.44297 31.6406 5.55047 32.4412 5.65635C35.1999 6.02085 37.8181 6.35447 40.2811 6.57435C42.8356 7.4056 45.2161 8.62097 47.368 10.1362C45.3377 10.2695 43.1765 10.3216 40.887 10.228C37.8321 10.0992 34.6558 9.74635 31.4865 9.32835C29.2465 9.03285 27.133 8.7186 25.0971 8.46535C23.4919 8.2652 21.8818 8.10607 20.2684 7.9881C23.2609 6.52335 26.5621 5.59535 30.0544 5.34422ZM19.5156 11.5316C21.5702 11.5556 23.7001 11.6897 25.8682 11.8987C28.0364 12.1078 30.224 12.3952 32.4412 12.6882C35.5783 13.1028 38.5406 13.4883 41.2909 13.6981C44.3317 13.9341 47.1924 13.9687 49.7734 13.9C50.4128 13.883 51.0209 13.8571 51.6094 13.8266C52.3639 14.6401 53.0527 15.5127 53.7024 16.4153C52.6177 16.6093 51.4781 16.7891 50.2139 16.9295C47.434 17.2382 44.2719 17.3985 40.887 17.26C37.8321 17.1312 34.6558 16.7783 31.4865 16.3602C29.2465 16.0648 27.133 15.7505 25.0971 15.4973C23.0612 15.2442 21.1089 15.0557 19.277 14.9466C17.9779 14.8657 16.7196 14.8268 15.5131 14.8181C14.3066 14.8093 13.1487 14.8306 12.0614 14.8731C11.8412 14.8821 11.6491 14.8991 11.4373 14.9098C12.394 13.7606 13.461 12.6893 14.5951 11.7152C16.2316 11.5782 17.8736 11.5169 19.5158 11.5315L19.5156 11.5316ZM19.5156 18.5635C21.5702 18.5875 23.7001 18.7217 25.8682 18.9307C28.0364 19.1397 30.224 19.4272 32.4412 19.7202C35.5783 20.1348 38.5406 20.5202 41.2909 20.73C44.3317 20.9661 47.1924 21.0006 49.7734 20.932C52.188 20.8677 54.326 20.7247 56.1626 20.5647C56.5018 21.2797 56.8232 22.0016 57.0989 22.7497C55.2049 23.2272 52.8944 23.682 50.2139 23.9797C47.434 24.2883 44.2719 24.4305 40.887 24.2919C40.378 24.2705 39.8607 24.251 39.3446 24.2185C37.4242 22.4051 34.8503 21.2808 32.0006 21.2808C30.0374 21.2808 28.2037 21.8101 26.6211 22.7313C26.1136 22.6605 25.6056 22.5932 25.0971 22.5294C23.0611 22.2762 21.1089 22.0877 19.277 21.9786C17.9779 21.8977 16.7196 21.8589 15.5131 21.85C14.3066 21.8411 13.1487 21.8625 12.0614 21.905C10.1907 21.9785 8.55487 22.1194 7.10413 22.254C7.44975 21.3718 7.84538 20.517 8.27913 19.6835C9.28487 19.4595 10.3525 19.2464 11.5474 19.0776C13.8895 18.7469 16.5953 18.5363 19.5158 18.5635H19.5156ZM19.5156 25.5955C20.7434 25.6096 22.0056 25.6737 23.2794 25.7607C22.5462 26.7841 22.0017 27.946 21.6637 29.1941C20.8693 29.1189 20.0736 29.0576 19.277 29.0103C16.6788 28.8487 14.2361 28.8516 12.0614 28.9371C9.88662 29.0226 7.96763 29.2029 6.36975 29.3594C6.00787 29.3946 5.7215 29.4184 5.39663 29.4511C5.46413 28.7368 5.56775 28.0365 5.69037 27.3397C7.2745 26.8845 9.23875 26.4355 11.5474 26.1096C13.8895 25.7789 16.5953 25.5682 19.5158 25.5955H19.5156ZM58.3291 27.3947C58.4429 28.0489 58.521 28.7082 58.5861 29.3777C58.1911 29.4935 57.7728 29.6098 57.3194 29.7265C55.388 30.2234 52.9939 30.7029 50.2139 31.0117C47.9356 31.2647 45.3906 31.4082 42.6864 31.3789C42.6133 30.1177 42.3314 28.9242 41.86 27.8171C44.6856 28.0142 47.3566 28.0281 49.7733 27.964C52.3541 27.8952 54.6526 27.7327 56.5666 27.56C57.2449 27.4987 57.7675 27.4474 58.3291 27.3947ZM19.5158 32.6275C20.1066 32.6346 20.7114 32.6745 21.3149 32.7008C21.396 33.9646 21.6965 35.1558 22.1779 36.2627C21.1841 36.1677 20.2129 36.0981 19.277 36.0425C16.6788 35.8808 14.2361 35.8836 12.0614 35.969C9.88662 36.0544 7.96763 36.2165 6.36975 36.3728C6.071 36.4022 5.885 36.4251 5.65363 36.4464C5.54323 35.7888 5.4575 35.1273 5.39663 34.4634C5.47413 34.4394 5.53638 34.4135 5.617 34.39C7.21288 33.9278 9.205 33.4722 11.5474 33.1415C13.8897 32.8107 16.5953 32.6002 19.5158 32.6275ZM58.6229 34.39C58.5607 35.0967 58.4639 35.7932 58.3475 36.4831C58.0187 36.5797 57.6859 36.6826 57.3194 36.7768C55.388 37.2736 52.9939 37.7348 50.2139 38.0437C47.4339 38.3526 44.2719 38.4945 40.887 38.3557C40.8022 38.3495 40.7161 38.3417 40.63 38.3376C41.3944 37.2976 41.9866 36.1276 42.3375 34.8491C44.9849 35.021 47.4939 35.075 49.7733 35.0143C52.3541 34.9457 54.6526 34.7649 56.5666 34.5921C57.3704 34.5196 57.9766 34.453 58.6229 34.3901V34.39ZM19.5158 39.6593C21.2309 39.6793 23.0045 39.7812 24.8034 39.9348C26.7075 41.6653 29.2248 42.7256 32.0006 42.7256C33.86 42.7256 35.5986 42.2547 37.1231 41.422C38.5582 41.5937 39.952 41.7421 41.2909 41.8442C44.3317 42.0801 47.1924 42.0967 49.7734 42.0278C52.3544 41.959 54.6526 41.7965 56.5666 41.624L56.9704 41.587C56.6309 42.4717 56.2236 43.3207 55.7954 44.1573C54.1729 44.5173 52.3115 44.8424 50.2139 45.0755C47.434 45.384 44.2719 45.526 40.887 45.3875C37.8321 45.2589 34.6558 44.9057 31.4865 44.4879C29.2465 44.1923 27.133 43.8781 25.0971 43.625C23.0612 43.3718 21.1089 43.2015 19.277 43.0925C17.9779 43.0116 16.7196 42.9543 15.5131 42.9456C14.3066 42.9368 13.1487 42.9762 12.0614 43.0191C10.4671 43.0816 9.07037 43.1841 7.78337 43.2945C7.44625 42.5725 7.11987 41.8466 6.84713 41.0912C8.20025 40.7447 9.7655 40.4248 11.5474 40.1732C13.8895 39.8425 16.5953 39.632 19.5158 39.6591V39.6593ZM19.5158 46.6913C21.5703 46.7148 23.7001 46.8495 25.8682 47.0586C28.0364 47.2676 30.224 47.5732 32.4412 47.8665C35.5783 48.281 38.5406 48.6483 41.2909 48.8577C44.3317 49.094 47.1924 49.1285 49.7734 49.0598C50.7471 49.0337 51.7203 48.9909 52.6925 48.9312C51.7276 50.1081 50.6651 51.2014 49.5163 52.1995C46.9062 52.4547 43.9967 52.547 40.887 52.4197C37.8321 52.291 34.6558 51.9562 31.4865 51.5385C29.2465 51.2429 27.133 50.9102 25.0971 50.6572C23.0611 50.4038 21.1089 50.2155 19.277 50.1063C17.9779 50.0256 16.7196 50.0048 15.5131 49.9962C14.3788 49.9881 13.2935 49.9962 12.2634 50.0326C11.5113 49.2098 10.8159 48.3376 10.1704 47.4255C10.6152 47.349 11.0695 47.2726 11.5474 47.2052C13.8896 46.8743 16.5953 46.6637 19.5158 46.6911V46.6913ZM17.6796 53.7417C18.2774 53.7258 18.8961 53.7363 19.5158 53.7417C21.5703 53.7652 23.7001 53.8997 25.8682 54.1088C28.0364 54.3176 30.224 54.587 32.4412 54.88C35.5783 55.2947 38.5406 55.6802 41.2909 55.8898C42.1071 55.9532 42.8969 55.9953 43.6776 56.0367C40.3755 57.6442 36.7001 58.6016 32.8085 58.7172C32.3669 58.6621 31.9282 58.6102 31.4865 58.552C29.2465 58.2566 27.133 57.9605 25.0971 57.7075C24.8352 57.6746 24.5842 57.6461 24.326 57.6156C21.496 56.7687 18.8735 55.4523 16.5229 53.7783C16.905 53.7596 17.285 53.7519 17.6796 53.742V53.7417Z" fill="#B3D3F1"/>
</svg>
